<svg xmlns="http://www.w3.org/2000/svg" width="18" height="8" viewBox="0 0 18 8" fill="#201E1C">
  <path fill-rule="evenodd" clip-rule="evenodd" d="M17.0426 3.99999C17.0426 6.19962 15.2594 7.98277 13.0598 7.98277L10.157 7.98277C9.82284 7.98277 9.55197 7.7119 9.55197 7.37777C9.55197 7.04363 9.82284 6.77277 10.157 6.77277L13.0598 6.77277C14.5912 6.77277 15.8326 5.53135 15.8326 3.99999C15.8326 2.46863 14.5912 1.22721 13.0598 1.22721L10.157 1.22721C9.82284 1.22721 9.55197 0.956344 9.55197 0.622212C9.55197 0.28808 9.82284 0.0172119 10.157 0.0172119H13.0598C15.2594 0.0172119 17.0426 1.80036 17.0426 3.99999ZM0.95752 3.99999C0.95752 1.80037 2.74067 0.0172156 4.9403 0.0172156H7.84312C8.17725 0.0172156 8.44812 0.288083 8.44812 0.622216C8.44812 0.956348 8.17725 1.22722 7.84312 1.22722H4.9403C3.40893 1.22722 2.16752 2.46863 2.16752 3.99999C2.16752 5.53136 3.40894 6.77277 4.9403 6.77277H7.84312C8.17725 6.77277 8.44812 7.04364 8.44812 7.37777C8.44812 7.7119 8.17725 7.98277 7.84312 7.98277H4.9403C2.74067 7.98277 0.95752 6.19962 0.95752 3.99999ZM5.19868 3.39499C4.86454 3.39499 4.59368 3.66586 4.59368 3.99999C4.59368 4.33412 4.86454 4.60499 5.19868 4.60499H13.1321C13.4662 4.60499 13.7371 4.33412 13.7371 3.99999C13.7371 3.66586 13.4662 3.39499 13.1321 3.39499H5.19868Z"/>
</svg>